<svg width="50" height="51" viewBox="0 0 50 51" fill="none" xmlns="http://www.w3.org/2000/svg">
<g clip-path="url(#clip0_175_382)">
<path d="M25 50.6367C38.8071 50.6367 50 39.4438 50 25.6367C50 11.8296 38.8071 0.636719 25 0.636719C11.1929 0.636719 0 11.8296 0 25.6367C0 39.4438 11.1929 50.6367 25 50.6367Z" fill="#F0F0F0"/>
<path d="M25 0.636719C11.193 0.636719 0 11.8297 0 25.6367C0 28.6947 0.550098 31.6241 1.55498 34.3323H48.4451C49.45 31.6241 50 28.6947 50 25.6367C50 11.8297 38.807 0.636719 25 0.636719Z" fill="#0052B4"/>
<path d="M24.9997 0.636719C14.2506 0.636719 5.08701 7.42109 1.55469 16.9411H48.4448C44.9124 7.42109 35.7488 0.636719 24.9997 0.636719V0.636719Z" fill="#D80027"/>
<path d="M6.46484 14.7676V27.2389C6.46484 34.333 15.7325 36.5067 15.7325 36.5067C15.7325 36.5067 25.0001 34.333 25.0001 27.2389V14.7676H6.46484Z" fill="#D80027"/>
<path d="M10.2969 16.9407H21.1665V12.5929L18.9926 13.6798L15.7317 10.4189L12.4708 13.6798L10.2969 12.5929V16.9407Z" fill="#FFDA44"/>
<path d="M22.8258 28.9744L15.7605 21.9092L8.69531 28.9744L11.0011 31.2802L15.7605 26.5207L20.52 31.2802L22.8258 28.9744Z" fill="#FFDA44"/>
<path d="M22.8258 22.3759H19.5293C19.7146 22.056 19.8225 21.6854 19.8225 21.2892C19.8225 20.0884 18.8491 19.1152 17.6485 19.1152C16.8189 19.1152 16.0985 19.5799 15.732 20.263C15.3655 19.58 14.6451 19.1152 13.8155 19.1152C12.6149 19.1152 11.6416 20.0884 11.6416 21.2892C11.6416 21.6854 11.7494 22.0561 11.9348 22.3759H8.69531C8.69531 23.5766 9.74111 24.5498 10.9416 24.5498H10.8692C10.8692 25.7505 11.8425 26.7237 13.0432 26.7237C13.0432 27.7868 13.8066 28.67 14.8149 28.8591L13.1021 32.7265C13.9229 33.0602 14.82 33.2455 15.7606 33.2455C16.7013 33.2455 17.5983 33.0602 18.4192 32.7265L16.7063 28.8591C17.7146 28.6702 18.4781 27.7869 18.4781 26.7237C19.6788 26.7237 20.6521 25.7505 20.6521 24.5498H20.5797C21.7801 24.5498 22.8258 23.5765 22.8258 22.3759V22.3759Z" fill="#F0F0F0"/>
</g>
<defs>
<clipPath id="clip0_175_382">
<rect width="50" height="50" fill="white" transform="translate(0 0.636719)"/>
</clipPath>
</defs>
</svg>
